<svg xmlns="http://www.w3.org/2000/svg" viewBox="0 0 1024 1024" fill="none">
  <defs>
    <linearGradient id="bg" x1="132" y1="98" x2="854" y2="932" gradientUnits="userSpaceOnUse">
      <stop stop-color="#6ECD88"/>
      <stop offset="0.56" stop-color="#279158"/>
      <stop offset="1" stop-color="#0F502F"/>
    </linearGradient>
    <filter id="shadow" x="188" y="170" width="654" height="710" filterUnits="userSpaceOnUse" color-interpolation-filters="sRGB">
      <feOffset dy="20"/>
      <feGaussianBlur stdDeviation="22"/>
      <feColorMatrix type="matrix" values="0 0 0 0 0.0235 0 0 0 0 0.1764 0 0 0 0 0.0941 0 0 0 0.36 0"/>
    </filter>
  </defs>
  <rect width="1024" height="1024" rx="232" fill="url(#bg)"/>
  <circle cx="418" cy="278" r="268" fill="white" fill-opacity="0.16"/>
  <circle cx="760" cy="786" r="178" fill="#083019" fill-opacity="0.22"/>
  <g filter="url(#shadow)">
    <path d="M258 414L512 226L766 414M336 414V744M688 414V744M336 744L688 414" stroke="#F7FFF8" stroke-width="92" stroke-linecap="round" stroke-linejoin="round"/>
    <path d="M454 560H570V760H454V560Z" fill="#279158"/>
  </g>
  <path d="M258 414L512 226L766 414M336 414V744M688 414V744M336 744L688 414" stroke="#F7FFF8" stroke-width="92" stroke-linecap="round" stroke-linejoin="round"/>
  <path d="M454 560H570V760H454V560Z" fill="#279158"/>
</svg>
